<?xml version="1.0" encoding="UTF-8"?>
<!--
  AIST logo mark — the icon portion only, no wordmark.
  Used in the header, favicons, and small contexts.
  Replace with production asset (same filename, same path).
-->
<svg xmlns="http://www.w3.org/2000/svg" viewBox="0 0 200 200" fill="none" role="img" aria-label="AIST">
  <path
    d="M100 12 C 60 60, 50 110, 60 145 C 70 175, 90 188, 100 188 L 100 12 Z"
    fill="currentColor"
  />
  <line x1="100" y1="50" x2="100" y2="170" stroke="#FFFFFF" stroke-opacity="0.18" stroke-width="2" />
  <line x1="92" y1="160" x2="108" y2="160" stroke="#FFFFFF" stroke-opacity="0.3" stroke-width="1.5" />
  <line x1="92" y1="166" x2="108" y2="166" stroke="#FFFFFF" stroke-opacity="0.3" stroke-width="1.5" />
  <g stroke="#1E88E5" stroke-width="2" fill="none" stroke-linecap="round" stroke-linejoin="round">
    <path d="M100 30 L 100 188" stroke-opacity="0.25" />
    <path d="M100 60 L 130 60 L 145 50" />
    <path d="M100 80 L 140 80 L 160 70" />
    <path d="M100 100 L 150 100 L 170 92" />
    <path d="M100 120 L 145 120 L 165 130" />
    <path d="M100 140 L 135 140 L 150 155" />
    <path d="M100 158 L 125 158 L 138 170" />
  </g>
  <g fill="#1E88E5">
    <circle cx="145" cy="50" r="3.5" />
    <circle cx="160" cy="70" r="3.5" />
    <circle cx="170" cy="92" r="3.5" />
    <circle cx="165" cy="130" r="3.5" />
    <circle cx="150" cy="155" r="3.5" />
    <circle cx="138" cy="170" r="3.5" />
  </g>
</svg>
